<?xml version="1.0" standalone="no"?>
<!DOCTYPE svg PUBLIC "-//W3C//DTD SVG 20010904//EN"
 "http://www.w3.org/TR/2001/REC-SVG-20010904/DTD/svg10.dtd">
<svg version="1.0" xmlns="http://www.w3.org/2000/svg"
 width="50.000000pt" height="50.000000pt" viewBox="0 0 50.000000 50.000000"
 preserveAspectRatio="xMidYMid meet">

<g transform="translate(0.000000,50.000000) scale(0.100000,-0.100000)"
fill="#222629" stroke="none">
<path d="M185 406 c-73 -32 -110 -116 -84 -191 13 -37 17 -40 49 -38 20 1 82
25 140 55 113 57 119 65 81 117 -43 61 -124 86 -186 57z"/>
<path d="M330 171 c-19 -10 -54 -25 -77 -31 -50 -15 -56 -30 -13 -30 41 0 90
22 119 54 29 30 20 32 -29 7z"/>
<path d="M335 345 c-127 -24 -213 -64 -286 -132 -51 -47 -62 -80 -34 -103 30
-25 214 23 337 87 79 41 148 98 148 122 0 43 -41 49 -165 26z m89 -34 c16 -25
-154 -122 -256 -146 -107 -25 -117 -19 -72 40 29 38 133 95 173 95 14 0 33 5
41 10 19 12 107 13 114 1z"/>
</g>
</svg>
