<svg width="16" height="9" viewBox="0 0 16 9" fill="none" xmlns="http://www.w3.org/2000/svg">
<path id="&#208;&#147;&#208;&#176;&#208;&#187;&#208;&#190;&#209;&#135;&#208;&#186;&#208;&#176;" fill-rule="evenodd" clip-rule="evenodd" d="M10.3351 7.72627L15.6798 2.6066C16.1067 2.17211 16.1067 1.46925 15.6798 1.03476C15.2513 0.598665 14.553 0.593873 14.1214 1.02837C14.1183 1.02996 14.1152 1.03476 14.1152 1.03476L8.78294 6.16561C8.35443 6.6017 7.65617 6.60649 7.22458 6.1704C7.22149 6.1704 7.21995 6.16881 7.21841 6.16561L1.88457 1.03476C1.45606 0.598665 0.757802 0.59547 0.326207 1.02996C-0.10693 1.46446 -0.108469 2.17051 0.320043 2.6066L5.66467 7.72627C6.95483 9.03135 9.04498 9.03135 10.3351 7.72627Z" fill="#25291C"/>
</svg>
