<svg width="21" height="20" viewBox="0 0 21 20" fill="none" xmlns="http://www.w3.org/2000/svg">
<path d="M20.5 10C20.5 15.5228 16.0228 20 10.5 20C4.97715 20 0.5 15.5228 0.5 10C0.5 4.47715 4.97715 0 10.5 0C16.0228 0 20.5 4.47715 20.5 10ZM3 10C3 14.1421 6.35786 17.5 10.5 17.5C14.6421 17.5 18 14.1421 18 10C18 5.85786 14.6421 2.5 10.5 2.5C6.35786 2.5 3 5.85786 3 10Z" fill="#7F8D15" fill-opacity="0.3"/>
<path d="M16.6872 3.81282C17.1753 3.32466 17.974 3.32049 18.3975 3.8657C19.509 5.29667 20.2159 7.00973 20.4307 8.82463C20.6947 11.0552 20.2 13.3098 19.0264 15.225C17.8528 17.1402 16.0685 18.6045 13.9612 19.3819C11.8538 20.1594 9.54608 20.2047 7.40983 19.5106C5.27358 18.8165 3.43322 17.4233 2.18531 15.5557C0.937389 13.6881 0.354593 11.4547 0.530826 9.21541C0.70706 6.97615 1.63206 4.86142 3.15677 3.21199C4.39733 1.86997 5.9761 0.899563 7.71643 0.395207C8.3795 0.203045 9.0232 0.675871 9.1312 1.35773V1.35773C9.23919 2.03958 8.76856 2.67 8.11407 2.88962C6.92686 3.288 5.8516 3.97971 4.99258 4.909C3.84904 6.14607 3.15529 7.73211 3.02312 9.41156C2.89094 11.091 3.32804 12.766 4.26398 14.1668C5.19992 15.5675 6.58018 16.6123 8.18237 17.1329C9.78456 17.6535 11.5154 17.6195 13.0959 17.0364C14.6764 16.4534 16.0146 15.3551 16.8948 13.9187C17.775 12.4823 18.146 10.7914 17.948 9.11847C17.7993 7.86174 17.3359 6.67012 16.6096 5.65C16.2092 5.08762 16.199 4.30097 16.6872 3.81282V3.81282Z" fill="#FFFFFF"/>
</svg>
