<?xml version="1.0" standalone="no"?>
<!DOCTYPE svg PUBLIC "-//W3C//DTD SVG 20010904//EN"
 "http://www.w3.org/TR/2001/REC-SVG-20010904/DTD/svg10.dtd">
<svg version="1.0" xmlns="http://www.w3.org/2000/svg"
 width="226.000000pt" height="247.000000pt" viewBox="0 0 226.000000 247.000000"
 preserveAspectRatio="xMidYMid meet">

<g transform="translate(0.000000,247.000000) scale(0.100000,-0.100000)"
fill="#474b4f" stroke="none">
<path d="M394 2411 c-39 -24 -64 -58 -64 -88 0 -22 -3 -23 -80 -23 -87 0 -119
-11 -160 -55 l-25 -27 -3 -960 c-2 -689 1 -964 9 -974 7 -8 39 -14 87 -16 l77
-3 3 -75 c2 -41 8 -80 14 -87 16 -19 1720 -19 1736 0 6 7 12 46 14 87 l3 75
75 3 c41 2 80 8 87 14 10 8 13 196 13 963 l0 952 -23 34 c-33 51 -78 69 -168
69 l-77 0 -6 34 c-7 38 -51 82 -92 92 -66 17 -148 -32 -160 -95 l-6 -31 -89 0
c-74 0 -89 3 -89 15 0 54 -69 115 -130 115 -61 0 -130 -61 -130 -115 0 -12
-15 -15 -89 -15 l-88 0 -7 31 c-12 63 -94 112 -160 95 -41 -10 -85 -54 -92
-92 l-6 -34 -88 0 c-86 0 -88 0 -94 26 -11 41 -34 71 -71 88 -44 21 -83 20
-121 -3z m94 -83 c7 -7 12 -42 12 -85 l0 -73 -45 0 -45 0 0 66 c0 36 5 74 10
85 12 21 50 25 68 7z m440 0 c7 -7 12 -42 12 -85 l0 -73 -46 0 -46 0 4 76 c2
52 8 78 18 84 21 13 44 12 58 -2z m440 0 c7 -7 12 -42 12 -85 l0 -73 -40 0
-40 0 0 73 c0 74 9 97 40 97 9 0 21 -5 28 -12z m442 2 c10 -6 16 -32 18 -84
l4 -76 -46 0 -46 0 0 73 c0 43 5 78 12 85 14 14 37 15 58 2z m-1488 -176 c3
-33 11 -60 19 -65 22 -14 223 -11 237 3 7 7 12 36 12 65 l0 53 90 0 90 0 0
-53 c0 -29 5 -58 12 -65 16 -16 220 -16 236 0 7 7 12 36 12 65 l0 53 90 0 90
0 0 -53 c0 -29 5 -58 12 -65 8 -8 49 -12 118 -12 69 0 110 4 118 12 7 7 12 36
12 65 l0 53 90 0 90 0 0 -53 c0 -29 5 -58 12 -65 16 -16 220 -16 236 0 7 7 12
36 12 65 l0 53 74 0 c104 0 106 -3 106 -146 l0 -114 -970 0 -970 0 0 118 c0
78 4 122 12 130 7 7 41 12 84 12 l72 0 4 -56z m1768 -1044 l0 -750 -970 0
-970 0 0 750 0 750 970 0 970 0 0 -750z m-180 -885 l0 -45 -790 0 -790 0 0 45
0 45 790 0 790 0 0 -45z"/>
<path d="M394 1661 c-45 -28 -64 -59 -64 -109 0 -84 48 -132 133 -132 98 0
156 102 109 189 -35 65 -118 89 -178 52z m96 -86 c7 -8 10 -25 6 -39 -8 -32
-42 -40 -67 -15 -23 23 -24 33 -3 53 20 20 48 20 64 1z"/>
<path d="M833 1660 c-39 -24 -63 -67 -63 -115 0 -134 183 -175 245 -55 59 114
-72 237 -182 170z m95 -82 c34 -34 -6 -90 -48 -68 -35 19 -20 80 20 80 9 0 21
-5 28 -12z"/>
<path d="M1273 1660 c-39 -24 -63 -67 -63 -115 0 -134 183 -175 245 -55 59
114 -72 237 -182 170z m95 -82 c34 -34 -6 -90 -48 -68 -35 19 -20 80 20 80 9
0 21 -5 28 -12z"/>
<path d="M1713 1660 c-39 -24 -63 -67 -63 -115 0 -134 183 -175 245 -55 59
114 -72 237 -182 170z m95 -82 c34 -34 -6 -90 -48 -68 -35 19 -20 80 20 80 9
0 21 -5 28 -12z"/>
<path d="M414 1320 c-84 -26 -115 -150 -53 -216 75 -80 215 -32 226 78 9 93
-81 165 -173 138z m67 -90 c37 -20 15 -87 -27 -78 -9 2 -23 12 -30 23 -12 18
-11 24 2 43 17 25 27 27 55 12z"/>
<path d="M865 1323 c-115 -30 -129 -203 -20 -249 46 -19 73 -18 114 4 99 53
89 193 -16 238 -33 14 -44 15 -78 7z m59 -96 c38 -27 -2 -95 -41 -71 -22 14
-29 50 -13 70 15 17 31 18 54 1z"/>
<path d="M1305 1323 c-115 -30 -129 -203 -20 -249 46 -19 73 -18 114 4 99 53
89 193 -16 238 -33 14 -44 15 -78 7z m59 -96 c38 -27 -2 -95 -41 -71 -22 14
-29 50 -13 70 15 17 31 18 54 1z"/>
<path d="M1745 1323 c-115 -30 -129 -203 -20 -249 46 -19 73 -18 114 4 99 53
89 193 -16 238 -33 14 -44 15 -78 7z m59 -96 c38 -27 -2 -95 -41 -71 -22 14
-29 50 -13 70 15 17 31 18 54 1z"/>
<path d="M389 953 c-85 -52 -78 -182 11 -228 114 -59 237 72 170 182 -36 59
-124 82 -181 46z m105 -95 c15 -24 -3 -52 -37 -56 -33 -4 -53 28 -37 59 14 25
58 23 74 -3z"/>
<path d="M809 931 c-35 -35 -39 -44 -39 -88 0 -134 171 -183 240 -70 54 88 -8
197 -113 197 -44 0 -53 -4 -88 -39z m127 -77 c9 -35 -15 -59 -50 -50 -20 5
-26 13 -26 35 0 15 3 31 7 34 3 4 19 7 34 7 22 0 30 -6 35 -26z"/>
<path d="M1249 931 c-35 -35 -39 -44 -39 -88 0 -134 171 -183 240 -70 54 88
-8 197 -113 197 -44 0 -53 -4 -88 -39z m127 -77 c9 -35 -15 -59 -50 -50 -20 5
-26 13 -26 35 0 35 6 41 41 41 22 0 30 -6 35 -26z"/>
<path d="M1689 931 c-35 -35 -39 -44 -39 -88 0 -36 6 -58 21 -77 82 -104 239
-54 239 77 0 44 -4 53 -39 88 -35 35 -44 39 -91 39 -47 0 -56 -4 -91 -39z
m127 -77 c9 -35 -15 -59 -50 -50 -20 5 -26 13 -26 35 0 35 6 41 41 41 22 0 30
-6 35 -26z"/>
</g>
</svg>
